<svg width="39" height="52" viewBox="0 0 39 52" fill="none" xmlns="http://www.w3.org/2000/svg">
<path d="M19.5 0C8.74453 0 0 8.74453 0 19.5C0 33.018 17.6008 50.7711 18.3523 51.5227C18.6672 51.8375 19.0836 52 19.5 52C19.9164 52 20.3328 51.8375 20.6477 51.5227C21.3992 50.7711 39 33.018 39 19.5C39 8.74453 30.2555 0 19.5 0Z" fill="#1C6CD5"/>
<path d="M19.5 16.25C22.1914 16.25 24.375 14.0664 24.375 11.375C24.375 8.68359 22.1914 6.5 19.5 6.5C16.8086 6.5 14.625 8.68359 14.625 11.375C14.625 14.0664 16.8086 16.25 19.5 16.25ZM24.375 19.5H14.625C11.9336 19.5 9.75 21.6836 9.75 24.375V29.25H29.25V24.375C29.25 21.6836 27.0664 19.5 24.375 19.5Z" fill="white"/>
</svg>
