<svg width="21" height="20" viewBox="0 0 21 20" fill="none" xmlns="http://www.w3.org/2000/svg">
<path d="M19.8671 18.7005L10.7471 0.464467C10.2939 -0.323436 9.42844 0.0398976 9.25698 0.464467L0.0838234 18.7944C-0.230521 19.5293 0.410415 20.0232 0.830903 19.9987H19.169C19.1731 19.9987 19.1731 19.9987 19.1772 19.9987C19.8345 20.0355 20.2305 19.2558 19.8671 18.7005ZM2.17809 18.3372L9.99997 2.70162L17.8218 18.3372H2.17809Z" fill="#FF3600"/>
<path d="M9.16699 7.84966V12.9894C9.16699 13.4507 9.53849 13.8222 9.9998 13.8222C10.4611 13.8222 10.8326 13.4507 10.8326 12.9894V7.84966C10.8326 7.38834 10.4611 7.01685 9.9998 7.01685C9.53849 7.01685 9.16699 7.38834 9.16699 7.84966Z" fill="#FF3600"/>
<path d="M9.99998 16.7573C10.4622 16.7573 10.8369 16.3826 10.8369 15.9204C10.8369 15.4582 10.4622 15.0835 9.99998 15.0835C9.53777 15.0835 9.16309 15.4582 9.16309 15.9204C9.16309 16.3826 9.53777 16.7573 9.99998 16.7573Z" fill="#FF3600"/>
</svg>
