<svg width="39" height="52" viewBox="0 0 39 52" fill="none" xmlns="http://www.w3.org/2000/svg">
<path d="M19.5 0C8.74453 0 0 8.74453 0 19.5C0 33.018 17.6008 50.7711 18.3523 51.5227C18.6672 51.8375 19.0836 52 19.5 52C19.9164 52 20.3328 51.8375 20.6477 51.5227C21.3992 50.7711 39 33.018 39 19.5C39 8.74453 30.2555 0 19.5 0Z" fill="#1C6CD5"/>
<path d="M19.5 6.5C12.3195 6.5 6.5 12.3195 6.5 19.5C6.5 26.6805 12.3195 32.5 19.5 32.5C26.6805 32.5 32.5 26.6805 32.5 19.5C32.5 12.3195 26.6805 6.5 19.5 6.5ZM24.375 22.75H17.875C16.9812 22.75 16.25 22.0188 16.25 21.125V14.625C16.25 13.7312 16.9812 13 17.875 13C18.7688 13 19.5 13.7312 19.5 14.625V19.5H24.375C25.2687 19.5 26 20.2312 26 21.125C26 22.0188 25.2687 22.75 24.375 22.75Z" fill="white"/>
</svg>
